# xmcd
#
# Track frame offsets: 
#        150
#        18463
#        33207
#        51947
#        69908
#        88083
#        105171
#        124940
#        142611
#        160088
#        174892
#
# Disc length: 2547 seconds
#
# Revision: 0
# Processed by: cddbd v1.5.2PL0 Copyright (c) Steve Scherf et al.
# Submitted via: ExactAudioCopy v0.99pb4
#
DISCID=7b09f10b
DTITLE=Nox - Most!
DYEAR=2009
DGENRE=
TTITLE0=Mire vágysz?
TTITLE1=Ne mondjátok...
TTITLE2=Csillagos ég
TTITLE3=Utazás
TTITLE4=Ne várj, ne sírj
TTITLE5=Ne felejts!
TTITLE6=Szomorú szívem
TTITLE7=Ördögdal
TTITLE8=Mások voltunk
TTITLE9=Valami, valaki
TTITLE10=Álom már
EXTD=
EXTT0=
EXTT1=
EXTT2=
EXTT3=
EXTT4=
EXTT5=
EXTT6=
EXTT7=
EXTT8=
EXTT9=
EXTT10=
PLAYORDER=
